{
  "source": "C:\\Users\\Peter\\Desktop\\stuff\\MIUN\\quantitative_research\\video_compression\\videos\\BVI-HD\\BVI-HD_CDVL_videos\\ORIG\\Bookcase_1920x1080_60fps.mp4",
  "output": "C:\\Users\\Peter\\Desktop\\stuff\\MIUN\\quantitative_research\\video_compression\\compressed_videos\\BVI-HD\\h264\\1.5\\Bookcase_1920x1080_60fps_h264.mp4",
  "codec": "h264",
  "ok": "Input #0, mov,mp4,m4a,3gp,3g2,mj2, from 'C:\\Users\\Peter\\Desktop\\stuff\\MIUN\\quantitative_research\\video_compression\\videos\\BVI-HD\\BVI-HD_CDVL_videos\\ORIG\\Bookcase_1920x1080_60fps.mp4':\n  Metadata:\n    major_brand     : isom\n    minor_version   : 512\n    compatible_brands: isomiso2avc1mp41\n    encoder         : Lavf54.28.101\n  Duration: 00:00:05.00, start: 0.000000, bitrate: 336321 kb/s\n  Stream #0:0[0x1](und): Video: h264 (High 4:4:4 Predictive) (avc1 / 0x31637661), yuv420p(progressive), 1920x1080, 336316 kb/s, 60 fps, 60 tbr, 60 tbn (default)\n    Metadata:\n      handler_name    : VideoHandler\n      vendor_id       : [0][0][0][0]\n[out#0/mp4 @ 000001b5a34cd640] Codec AVOption b:a (set bitrate (in bits/s)) has not been used for any stream. The most likely reason is either wrong type (e.g. a video option with no video streams) or that it is a private option of some decoder which was not actually used for any stream.\nStream mapping:\n  Stream #0:0 -> #0:0 (h264 (native) -> h264 (libx264))\nPress [q] to stop, [?] for help\n[libx264 @ 000001b5a34ca9c0] using cpu capabilities: MMX2 SSE2Fast SSSE3 SSE4.2 AVX FMA3 BMI2 AVX2\n[libx264 @ 000001b5a34ca9c0] profile High, level 5.0, 4:2:0, 8-bit\n[libx264 @ 000001b5a34ca9c0] 264 - core 165 r3222 b35605a - H.264/MPEG-4 AVC codec - Copyleft 2003-2025 - http://www.videolan.org/x264.html - options: cabac=1 ref=5 deblock=1:0:0 analyse=0x3:0x113 me=hex subme=8 psy=1 psy_rd=1.00:0.00 mixed_ref=1 me_range=16 chroma_me=1 trellis=2 8x8dct=1 cqm=0 deadzone=21,11 fast_pskip=1 chroma_qp_offset=-2 threads=18 lookahead_threads=3 sliced_threads=0 nr=0 decimate=1 interlaced=0 bluray_compat=0 constrained_intra=0 bframes=3 b_pyramid=2 b_adapt=1 b_bias=0 direct=3 weightb=1 open_gop=0 weightp=2 keyint=250 keyint_min=25 scenecut=40 intra_refresh=0 rc_lookahead=50 rc=cbr mbtree=1 bitrate=1500 ratetol=1.0 qcomp=0.60 qpmin=0 qpmax=69 qpstep=4 vbv_maxrate=1500 vbv_bufsize=1500 nal_hrd=none filler=0 ip_ratio=1.40 aq=1:1.00\nOutput #0, mp4, to 'C:\\Users\\Peter\\Desktop\\stuff\\MIUN\\quantitative_research\\video_compression\\compressed_videos\\BVI-HD\\h264\\1.5\\Bookcase_1920x1080_60fps_h264.mp4':\n  Metadata:\n    major_brand     : isom\n    minor_version   : 512\n    compatible_brands: isomiso2avc1mp41\n    encoder         : Lavf62.3.100\n  Stream #0:0(und): Video: h264 (avc1 / 0x31637661), yuv420p(tv, progressive), 1920x1080, q=2-31, 1500 kb/s, 60 fps, 15360 tbn (default)\n    Metadata:\n      encoder         : Lavc62.11.100 libx264\n      handler_name    : VideoHandler\n      vendor_id       : [0][0][0][0]\n    Side data:\n      cpb: bitrate max/min/avg: 1500000/0/1500000 buffer size: 1500000 vbv_delay: N/A\nframe=    0 fps=0.0 q=0.0 size=       0KiB time=N/A bitrate=N/A speed=N/A elapsed=0:00:00.52    \nframe=    0 fps=0.0 q=0.0 size=       0KiB time=N/A bitrate=N/A speed=N/A elapsed=0:00:01.11    \nframe=   29 fps= 17 q=42.0 size=       0KiB time=00:00:00.41 bitrate=   0.9kbits/s speed=0.251x elapsed=0:00:01.65    \nframe=   62 fps= 27 q=42.0 size=       0KiB time=00:00:01.00 bitrate=   0.4kbits/s speed=0.44x elapsed=0:00:02.27    \nframe=  106 fps= 38 q=42.0 size=       0KiB time=00:00:01.60 bitrate=   0.2kbits/s speed=0.571x elapsed=0:00:02.80    \nframe=  138 fps= 40 q=40.0 size=     256KiB time=00:00:02.26 bitrate= 925.4kbits/s speed=0.662x elapsed=0:00:03.42    \nframe=  174 fps= 44 q=42.0 size=     256KiB time=00:00:02.80 bitrate= 749.1kbits/s speed=0.703x elapsed=0:00:03.98    \nframe=  207 fps= 45 q=43.0 size=     256KiB time=00:00:03.41 bitrate= 613.9kbits/s speed=0.747x elapsed=0:00:04.57    \nframe=  233 fps= 46 q=43.0 size=     512KiB time=00:00:03.85 bitrate=1089.5kbits/s speed=0.756x elapsed=0:00:05.09    \nframe=  284 fps= 51 q=-1.0 size=     512KiB time=00:00:04.60 bitrate= 911.9kbits/s speed=0.82x elapsed=0:00:05.61    \n[mp4 @ 000001b5a34b9980] Starting second pass: moving the moov atom to the beginning of the file\n[out#0/mp4 @ 000001b5a34cd640] video:790KiB audio:0KiB subtitle:0KiB other streams:0KiB global headers:0KiB muxing overhead: 0.523711%\nframe=  300 fps= 51 q=-1.0 Lsize=     795KiB time=00:00:04.96 bitrate=1310.6kbits/s speed=0.849x elapsed=0:00:05.85    \n[libx264 @ 000001b5a34ca9c0] frame I:2     Avg QP:38.51  size: 23938\n[libx264 @ 000001b5a34ca9c0] frame P:93    Avg QP:41.52  size:  5781\n[libx264 @ 000001b5a34ca9c0] frame B:205   Avg QP:43.86  size:  1088\n[libx264 @ 000001b5a34ca9c0] consecutive B-frames:  2.3% 11.3% 25.0% 61.3%\n[libx264 @ 000001b5a34ca9c0] mb I  I16..4: 45.4% 53.7%  0.9%\n[libx264 @ 000001b5a34ca9c0] mb P  I16..4: 11.4%  7.0%  0.0%  P16..4: 15.5%  0.7%  1.3%  0.0%  0.0%    skip:64.1%\n[libx264 @ 000001b5a34ca9c0] mb B  I16..4:  0.1%  0.1%  0.0%  B16..8: 15.2%  0.1%  0.0%  direct: 0.0%  skip:84.5%  L0:31.9% L1:68.0% BI: 0.1%\n[libx264 @ 000001b5a34ca9c0] 8x8 transform intra:39.9% inter:95.8%\n[libx264 @ 000001b5a34ca9c0] direct mvs  spatial:95.6% temporal:4.4%\n[libx264 @ 000001b5a34ca9c0] coded y,uvDC,uvAC intra: 7.3% 29.3% 1.4% inter: 0.7% 1.1% 0.0%\n[libx264 @ 000001b5a34ca9c0] i16 v,h,dc,p: 57% 25%  4% 15%\n[libx264 @ 000001b5a34ca9c0] i8 v,h,dc,ddl,ddr,vr,hd,vl,hu: 34% 16% 33%  2%  2%  3%  4%  4%  2%\n[libx264 @ 000001b5a34ca9c0] i4 v,h,dc,ddl,ddr,vr,hd,vl,hu: 23% 19% 15%  4%  8%  7% 15%  4%  5%\n[libx264 @ 000001b5a34ca9c0] i8c dc,h,v,p: 62% 17% 17%  4%\n[libx264 @ 000001b5a34ca9c0] Weighted P-Frames: Y:0.0% UV:0.0%\n[libx264 @ 000001b5a34ca9c0] ref P L0: 84.2%  8.9%  4.5%  1.2%  1.2%  0.0%\n[libx264 @ 000001b5a34ca9c0] ref B L0: 92.6%  5.4%  1.6%  0.4%\n[libx264 @ 000001b5a34ca9c0] ref B L1: 98.6%  1.4%\n[libx264 @ 000001b5a34ca9c0] kb/s:1293.85\n",
  "seconds": 6.101830244064331,
  "probe_out": {}
}